<svg xmlns="http://www.w3.org/2000/svg" width="242.538" height="78.554" viewBox="0 0 242.538 78.554">
  <g id="Group_15" data-name="Group 15" transform="translate(-975.217 -492.04)">
    <path id="Path_41" data-name="Path 41" d="M59.375-47.363l-7.65,7.292q-7.806-8.25-17.563-8.25a18.874,18.874,0,0,0-13.875,5.63,18.847,18.847,0,0,0-5.64,13.881,20.519,20.519,0,0,0,2.5,10.2,17.9,17.9,0,0,0,7.064,7A20.509,20.509,0,0,0,34.358-9.062a20.911,20.911,0,0,0,8.7-1.779,31.2,31.2,0,0,0,8.665-6.471l7.415,7.737Q52.773-3.361,47.109-.958a32.838,32.838,0,0,1-12.93,2.4q-13.4,0-21.934-8.5T3.711-28.828A29.807,29.807,0,0,1,7.6-44.1,28.9,28.9,0,0,1,18.73-54.844a31.4,31.4,0,0,1,15.605-4.062,32.629,32.629,0,0,1,13.691,3,32.74,32.74,0,0,1,11.349,8.543Zm5.9,4.863h9.141v5.352a11.419,11.419,0,0,1,3.945-4.8,9.519,9.519,0,0,1,5.391-1.641A9.974,9.974,0,0,1,88.086-42.5l-3.32,9.18a7.333,7.333,0,0,0-3.086-.937q-2.461,0-4.16,3.047t-1.7,11.953l.039,2.07V0H65.273Zm48.047-1.094a22.526,22.526,0,0,1,11.309,3.008,21.728,21.728,0,0,1,8.262,8.164,21.937,21.937,0,0,1,2.969,11.133,22.32,22.32,0,0,1-2.988,11.25,21.562,21.562,0,0,1-8.145,8.184,22.491,22.491,0,0,1-11.367,2.949,21.2,21.2,0,0,1-15.605-6.5,21.577,21.577,0,0,1-6.465-15.8,21.5,21.5,0,0,1,7.3-16.6,21.339,21.339,0,0,1,14.728-5.788Zm.176,10.039A10.976,10.976,0,0,0,105.22-30.1a12.278,12.278,0,0,0-3.306,8.848,12.5,12.5,0,0,0,3.267,8.984,10.927,10.927,0,0,0,8.276,3.438,11.054,11.054,0,0,0,8.334-3.477,12.409,12.409,0,0,0,3.326-8.945,12.329,12.329,0,0,0-3.267-8.887,11.051,11.051,0,0,0-8.35-3.416ZM139.863-42.5H150.3l8.547,24.18,9.195-24.18h6.385l9.03,23.906L192.013-42.5H202.52L187.012,0h-6.758l-9.062-24.219L161.855,0h-6.68Zm68.691,0h10.664v4.355A25.584,25.584,0,0,1,225.79-42.4a15.886,15.886,0,0,1,6.027-1.2,14.59,14.59,0,0,1,10.727,4.414q3.7,3.75,3.7,11.094V0H235.7V-18.611q0-7.608-.682-10.1a6.922,6.922,0,0,0-2.377-3.8,6.656,6.656,0,0,0-4.189-1.307,7.852,7.852,0,0,0-5.553,2.166,11.559,11.559,0,0,0-3.215,5.989,48.312,48.312,0,0,0-.468,8.622V0H208.555Z" transform="translate(971.511 569.147)" fill="#fff"/>
    <g id="Group_14" data-name="Group 14" transform="translate(873.481 277.969)">
      <path id="Path_1" data-name="Path 1" d="M238.364,225.583a1.895,1.895,0,0,0-.916,3.557c-1.362.826-4,2.189-6.243,1.921-5.576-.667-6.23-7.158-6.288-9.422a1.917,1.917,0,1,0-.455-.15c-1.1,1.445-4.007,4.863-6.636,4.5-4.362-.607-6.166-6.472-6.59-8.123a1.9,1.9,0,1,0-.208,0c-.424,1.652-2.228,7.517-6.59,8.123-2.63.366-5.536-3.052-6.636-4.5a1.92,1.92,0,1,0-.455.15c-.058,2.264-.712,8.755-6.288,9.422-2.239.268-4.881-1.1-6.244-1.921a2.024,2.024,0,1,0-.357.152l10.455,14.023c3.964-2.1,9.759-3.429,16.22-3.429s12.255,1.327,16.22,3.429l10.455-14.023a1.879,1.879,0,0,0,.558.093,1.9,1.9,0,0,0,0-3.8Zm-48.974,7.694c.21.086,2.476.282,2.476.282l3.223,7.43Zm12.587,5.918-4.894-8.43s.57-.229,1.152-1.514a9.4,9.4,0,0,0,.622-2.565,9.655,9.655,0,0,0,1.765,2c1.131.886,1.752.836,1.752.836Zm9.155-1.727-2.9-9.4s2.712-1.829,2.9-3.57c.189,1.74,2.9,3.57,2.9,3.57Zm9.155,1.727-.4-9.672s.622.05,1.752-.836a9.682,9.682,0,0,0,1.765-2,9.4,9.4,0,0,0,.623,2.565c.582,1.285,1.152,1.515,1.152,1.515Zm6.888,1.795,3.223-7.43s2.266-.2,2.476-.282Z" transform="translate(0)" fill="#fff"/>
      <path id="Path_2" data-name="Path 2" d="M244.3,280.449a41.31,41.31,0,0,0-29.6-.011,1,1,0,0,0,.806,1.829,39.647,39.647,0,0,1,27.988.01.993.993,0,0,0,1.183-.3h0A1,1,0,0,0,244.3,280.449Z" transform="translate(-18.355 -36.369)" fill="#fff"/>
    </g>
  </g>
</svg>
