<svg xmlns="http://www.w3.org/2000/svg" width="143.388" height="78.554" viewBox="0 0 143.388 78.554">
  <g id="Group_16" data-name="Group 16" transform="translate(-181.997 -214.071)">
    <path id="Path_1" data-name="Path 1" d="M320.708,242.4a4.663,4.663,0,0,0-2.253,8.754c-3.352,2.033-9.852,5.386-15.364,4.727-13.721-1.64-15.331-17.614-15.474-23.186a4.717,4.717,0,1,0-1.121-.369c-2.709,3.556-9.86,11.966-16.331,11.066-10.735-1.493-15.174-15.926-16.217-19.991a4.678,4.678,0,1,0-.512,0c-1.044,4.064-5.482,18.5-16.217,19.991-6.472.9-13.623-7.51-16.331-11.066a4.726,4.726,0,1,0-1.121.369c-.142,5.572-1.752,21.546-15.474,23.186-5.511.659-12.012-2.695-15.364-4.727a4.979,4.979,0,1,0-.879.373l25.729,34.507c9.756-5.172,24.016-8.439,39.914-8.439s30.158,3.266,39.914,8.439l25.729-34.507a4.624,4.624,0,0,0,1.373.229,4.678,4.678,0,0,0,0-9.356ZM200.189,261.333c.517.212,6.094.694,6.094.694l7.932,18.285ZM231.164,275.9l-12.044-20.745s1.4-.564,2.836-3.727a23.127,23.127,0,0,0,1.532-6.312,23.76,23.76,0,0,0,4.343,4.924c2.782,2.18,4.312,2.057,4.312,2.057Zm22.529-4.249-7.14-23.138s6.674-4.5,7.14-8.784c.466,4.283,7.14,8.784,7.14,8.784Zm22.53,4.249-.978-23.8s1.53.123,4.312-2.057a23.825,23.825,0,0,0,4.343-4.924,23.125,23.125,0,0,0,1.532,6.312c1.433,3.163,2.836,3.727,2.836,3.727Zm16.95,4.417,7.932-18.285s5.577-.483,6.094-.694Z" transform="translate(0 0)" fill="#fff"/>
    <path id="Path_2" data-name="Path 2" d="M288.4,284.463c-9.526-4.193-22.349-6.762-36.456-6.762-14.076,0-26.872,2.559-36.39,6.736a2.46,2.46,0,0,0,1.984,4.5c8.488-3.715,20.4-6.267,34.407-6.267,14.039,0,25.975,2.563,34.466,6.292a2.442,2.442,0,0,0,2.912-.745h0A2.456,2.456,0,0,0,288.4,284.463Z" transform="translate(1.744 3.456)" fill="#fff"/>
  </g>
</svg>
