<svg xmlns="http://www.w3.org/2000/svg" xmlns:xlink="http://www.w3.org/1999/xlink" width="1920" height="1080" viewBox="0 0 1920 1080">
  <defs>
    <clipPath id="clip-path">
      <rect id="Rectangle_2" data-name="Rectangle 2" width="1920" height="1080"/>
    </clipPath>
  </defs>
  <g id="Web_1920_1" data-name="Web 1920 – 1" clip-path="url(#clip-path)">
    <rect id="Rectangle_1" data-name="Rectangle 1" width="1920" height="1080" fill="#fff"/>
    <g id="_66196815_9572401" data-name="66196815_9572401" transform="translate(411.586 421.259)">
      <g id="Background_complete" transform="translate(0 42.667)">
        <path id="Path_1" data-name="Path 1" d="M232.911,176.068c41.526-19.838,93.844-14.758,130.776,12.7" transform="translate(-320.456 26.36)" fill="none" stroke="#e0e0e0" stroke-linecap="round" stroke-linejoin="round" stroke-miterlimit="10" stroke-width="8"/>
        <path id="Path_2" data-name="Path 2" d="M324.316,171.229l-14.237,20.1,24.073,1.532Z" transform="translate(-280.449 30.079)" fill="#e0e0e0"/>
        <g id="Group_1" data-name="Group 1" transform="translate(1034.802 432.392)">
          <path id="Path_3" data-name="Path 3" d="M417.941,391.646c32.517,14.293,68.838,21.475,103.9,15.793s68.592-25.2,87.087-55.528" transform="translate(-417.941 -341.404)" fill="none" stroke="#e0e0e0" stroke-linecap="round" stroke-linejoin="round" stroke-miterlimit="10" stroke-width="8"/>
          <path id="Path_4" data-name="Path 4" d="M535.637,352.871l19.3,13.806,2.575-21.685Z" transform="translate(-356.923 -344.992)" fill="#e0e0e0"/>
        </g>
        <g id="Group_13" data-name="Group 13" transform="translate(129.772 391.735)">
          <g id="Group_11" data-name="Group 11">
            <g id="Group_2" data-name="Group 2" transform="translate(85.555 56.891)">
              <path id="Path_5" data-name="Path 5" d="M88.825,363.323c-.228.525-.969-.483-.733-3.509a32.711,32.711,0,0,1,1.072-5.872c1.985-7.015.993-11.859,2.978-18.874,3.788-13.393,11.352-30.064,23.6-38.082,4.249-2.782,10.986-4.209,14.059-.331,2.3,2.906,1.026,6.956-.336,10.328l-6.414,15.889c-3.36,8.323-6.766,16.73-12.108,24.123s-12.879,13.787-22.121,16.328" transform="translate(-88.046 -294.28)" fill="#ebebeb"/>
            </g>
            <g id="Group_4" data-name="Group 4" transform="translate(78.366 56.936)">
              <g id="Group_3" data-name="Group 3">
                <path id="Path_6" data-name="Path 6" d="M84.425,386.3a99.457,99.457,0,0,1,6.428-18.886c3.717-8.4,8.588-16.068,12.881-24.155,3.931-7.407,6.933-15.248,10.306-22.912a86.428,86.428,0,0,1,4.857-9.771,58.7,58.7,0,0,1,3.638-4.987q3.936-5.225,7.856-10.462c.44-.586-.548-1.154-.984-.574q-3.633,4.838-7.269,9.677c-1.043,1.389-2.2,2.677-3.178,4.118a61.728,61.728,0,0,0-4.785,8.922c-3.541,7.714-6.508,15.681-10.322,23.27-4.113,8.184-9.167,15.819-13.018,24.157a104.338,104.338,0,0,0-7.51,21.3c-.155.717.943,1.022,1.1.305Z" transform="translate(-83.311 -294.31)" fill="#e0e0e0"/>
              </g>
            </g>
            <g id="Group_5" data-name="Group 5" transform="translate(0 62.59)">
              <path id="Path_7" data-name="Path 7" d="M91.138,375.79a62.186,62.186,0,0,0-6.605-45.67c-7.982-13.857-21.5-24.939-37.363-30.645-3.2-1.149-6.818-2.082-9.991-.879a9.057,9.057,0,0,0-5.466,8.156c-.147,3.372,1.174,6.648,2.692,9.72,4.558,9.223,11.027,17.517,17.453,25.744l18.917,24.216c2.006,2.568,4.075,5.2,6.942,6.938s10.416,3.954,13.421,2.422" transform="translate(-31.702 -298.034)" fill="#ebebeb"/>
            </g>
            <g id="Group_6" data-name="Group 6" transform="translate(41.501 0.121)">
              <path id="Path_8" data-name="Path 8" d="M93.08,355.824c3.9-3.949,7.292-18.446,7.219-20.888-.29-9.65,1.034-6.677.744-16.326-.554-18.423-7.251-41.8-20.534-55.587-4.608-4.783-12.884-8.494-18.135-4.312-3.934,3.134-3.6,8.743-2.929,13.494q1.574,11.2,3.149,22.388c1.649,11.727,3.331,23.577,7.855,34.643s12.22,21.446,23.382,27.294" transform="translate(-59.033 -256.893)" fill="#ebebeb"/>
            </g>
            <g id="Group_8" data-name="Group 8" transform="translate(0.972 66.677)">
              <g id="Group_7" data-name="Group 7">
                <path id="Path_9" data-name="Path 9" d="M106.207,410.37c3.092-8.854-1.025-18.082-6.426-25.1-6.2-8.055-14.182-14.609-19.082-23.648-4.842-8.934-7.052-18.947-10.82-28.323-2.638-6.561-7.067-12.3-12.064-17.246a61.605,61.605,0,0,0-24.772-15.3c-.7-.217-1,.881-.3,1.1A59.657,59.657,0,0,1,55.4,315.318c5.205,4.824,10.011,10.549,12.889,17.095C72.008,340.878,74,350,77.844,358.427c4,8.775,10.412,15.374,16.767,22.461,6.967,7.768,14.316,18.241,10.5,29.18-.241.692.858.992,1.1.3Z" transform="translate(-32.342 -300.725)" fill="#e0e0e0"/>
              </g>
            </g>
            <g id="Group_10" data-name="Group 10" transform="translate(46.824)">
              <g id="Group_9" data-name="Group 9">
                <path id="Path_10" data-name="Path 10" d="M99.05,435.911c-1.2-13.057-3.371-25.991-4.98-39-.847-6.853-1.523-13.728-1.881-20.625-.38-7.285-.166-14.568-.4-21.855a209.423,209.423,0,0,0-5.63-41.962,208.073,208.073,0,0,0-6.2-21.015,151.68,151.68,0,0,0-7.6-18.561c-2.739-5.351-5.846-10.541-8.763-15.8-.355-.641-1.339-.067-.984.575q4.157,7.5,8.315,14.99a111.6,111.6,0,0,1,6.247,14.516,207.609,207.609,0,0,1,6.611,20.541,208.3,208.3,0,0,1,6.692,42.575c.378,7.272.144,14.547.39,21.821.231,6.806.779,13.6,1.537,20.361,1.625,14.506,4.17,28.894,5.5,43.435.067.724,1.206.732,1.139,0Z" transform="translate(-62.539 -256.814)" fill="#e0e0e0"/>
              </g>
            </g>
          </g>
          <path id="Path_11" data-name="Path 11" d="M62.253,353.409h62.1s4.533,10.435-4.533,13.358l-5.667,34.227H71.319l-4.76-33.6S59.533,364.679,62.253,353.409Z" transform="translate(-16.187 -206.735)" fill="#e6e6e6"/>
          <g id="Group_12" data-name="Group 12" transform="translate(50.372 160.032)">
            <path id="Path_12" data-name="Path 12" d="M64.875,362.832c17.462,0,35.8-.626,53.264-.626l-.583,3.523H65.285Z" transform="translate(-64.875 -362.206)" fill="#e0e0e0"/>
          </g>
        </g>
        <rect id="Rectangle_1-2" data-name="Rectangle 1" width="56.351" height="17.502" transform="translate(-169.279 -193.869)" fill="#f0f0f0"/>
        <rect id="Rectangle_2-2" data-name="Rectangle 2" width="56.351" height="17.502" transform="translate(-347.545 -416.62)" fill="#f0f0f0"/>
        <rect id="Rectangle_3" data-name="Rectangle 3" width="56.351" height="17.502" transform="translate(1057.456 -238)" fill="#f0f0f0"/>
        <g id="Group_14" data-name="Group 14" transform="translate(992.539 143.911)">
          <rect id="Rectangle_4" data-name="Rectangle 4" width="56.351" height="17.502" transform="translate(28.175 16.908)" fill="#f0f0f0"/>
          <rect id="Rectangle_5" data-name="Rectangle 5" width="56.351" height="17.502" fill="#ebebeb"/>
        </g>
        <rect id="Rectangle_6" data-name="Rectangle 6" width="56.351" height="17.502" transform="translate(885.463 527.141)" fill="#e0e0e0"/>
        <rect id="Rectangle_7" data-name="Rectangle 7" width="56.351" height="17.502" transform="translate(1135.099 553.391)" fill="#ebebeb"/>
        <rect id="Rectangle_8" data-name="Rectangle 8" width="56.351" height="17.502" transform="translate(1160.793 535.891)" fill="#f0f0f0"/>
        <rect id="Rectangle_9" data-name="Rectangle 9" width="56.351" height="17.502" transform="translate(1235.397 -350.43)" fill="#e0e0e0"/>
        <rect id="Rectangle_10" data-name="Rectangle 10" width="56.351" height="17.502" transform="translate(-169.279 169.57)" fill="#f0f0f0"/>
        <g id="Group_15" data-name="Group 15" transform="translate(924.578 283.348)">
          <rect id="Rectangle_11" data-name="Rectangle 11" width="56.351" height="17.502" transform="translate(76.526 76.406)" fill="#ebebeb"/>
          <rect id="Rectangle_12" data-name="Rectangle 12" width="56.351" height="17.502" fill="#f0f0f0"/>
        </g>
        <g id="Group_16" data-name="Group 16" transform="translate(-390.816 -48.926)">
          <rect id="Rectangle_13" data-name="Rectangle 13" width="56.351" height="17.502" transform="translate(30.191)" fill="#ebebeb"/>
          <rect id="Rectangle_14" data-name="Rectangle 14" width="59.858" height="17.502" transform="translate(0 17.699)" fill="#f0f0f0"/>
        </g>
        <rect id="Rectangle_15" data-name="Rectangle 15" width="56.351" height="17.502" transform="translate(1368.345 -15.468)" fill="#e0e0e0"/>
        <rect id="Rectangle_16" data-name="Rectangle 16" width="56.351" height="17.502" transform="translate(1394.463 0.613)" fill="#f0f0f0"/>
        <g id="Group_17" data-name="Group 17" transform="translate(-279.349 -391.571)">
          <rect id="Rectangle_17" data-name="Rectangle 17" width="110.07" height="174.904" fill="#e0e0e0"/>
          <rect id="Rectangle_18" data-name="Rectangle 18" width="93.518" height="158.592" transform="translate(8.277 8.156)" fill="#fff" opacity="0.6"/>
          <rect id="Rectangle_19" data-name="Rectangle 19" width="81.153" height="147.161" transform="translate(14.459 13.871)" fill="#fff"/>
          <rect id="Rectangle_20" data-name="Rectangle 20" width="44.944" height="106.868" transform="translate(33.108 33.173)" fill="#e6e6e6"/>
          <path id="Path_13" data-name="Path 13" d="M125.7,85.712s-1.45,106.751.724,106.388S184.306,86.987,184.54,85.9Z" transform="translate(-106.489 -68.628)" fill="#fff" opacity="0.6"/>
        </g>
        <g id="Group_18" data-name="Group 18" transform="translate(1378.344 -449.023)">
          <rect id="Rectangle_21" data-name="Rectangle 21" width="110.07" height="174.904" fill="#e0e0e0"/>
          <rect id="Rectangle_22" data-name="Rectangle 22" width="93.518" height="158.592" transform="translate(8.277 8.157)" fill="#fff" opacity="0.6"/>
          <rect id="Rectangle_23" data-name="Rectangle 23" width="81.153" height="147.161" transform="translate(14.459 13.871)" fill="#fff"/>
          <rect id="Rectangle_24" data-name="Rectangle 24" width="44.944" height="106.868" transform="translate(33.11 33.173)" fill="#e6e6e6"/>
          <path id="Path_14" data-name="Path 14" d="M580.595,87.828s-1.45,106.751.724,106.388S639.2,89.1,639.439,88.016Z" transform="translate(-561.388 -70.744)" fill="#fff" opacity="0.6"/>
        </g>
        <g id="Group_19" data-name="Group 19" transform="translate(1083.794 -86.129)">
          <rect id="Rectangle_25" data-name="Rectangle 25" width="110.07" height="174.904" fill="#e0e0e0"/>
          <rect id="Rectangle_26" data-name="Rectangle 26" width="93.518" height="158.592" transform="translate(8.277 8.156)" fill="#fff" opacity="0.6"/>
          <rect id="Rectangle_27" data-name="Rectangle 27" width="81.153" height="147.161" transform="translate(14.459 13.871)" fill="#fff"/>
          <rect id="Rectangle_28" data-name="Rectangle 28" width="44.943" height="106.868" transform="translate(33.108 33.172)" fill="#e6e6e6"/>
          <path id="Path_15" data-name="Path 15" d="M365.235,86.269s-1.45,106.751.724,106.388,57.886-105.112,58.12-106.2Z" transform="translate(-346.028 -69.185)" fill="#fff" opacity="0.6"/>
        </g>
        <g id="Group_33" data-name="Group 33" transform="translate(0 8.749)">
          <g id="Group_32" data-name="Group 32" transform="translate(61.717 535.471)">
            <rect id="Rectangle_30" data-name="Rectangle 30" width="84.621" height="0.639" transform="translate(930.774 19.433)" fill="#ebebeb"/>
            <rect id="Rectangle_31" data-name="Rectangle 31" width="22.21" height="0.639" transform="translate(689.977 26.365)" fill="#ebebeb"/>
            <rect id="Rectangle_32" data-name="Rectangle 32" width="110.351" height="0.639" fill="#ebebeb"/>
            <rect id="Rectangle_33" data-name="Rectangle 33" width="16.18" height="0.639" transform="translate(133.097)" fill="#ebebeb"/>
            <rect id="Rectangle_34" data-name="Rectangle 34" width="239.326" height="0.639" transform="translate(201.863 10.787)" fill="#ebebeb"/>
          </g>
        </g>
      </g>
      <g id="Shadow" transform="translate(67.9 621.959)">
        <g id="Group_35" data-name="Group 35">
          <g id="Group_34" data-name="Group 34">
            <path id="Path_19" data-name="Path 19" d="M1047.75,442.5c0,10.157-224.536,18.391-501.514,18.391S44.717,452.658,44.717,442.5s224.536-18.39,501.514-18.39S1047.75,432.343,1047.75,442.5Z" transform="translate(-44.717 -424.11)" fill="#f5f5f5"/>
          </g>
        </g>
      </g>
      <g id="Lines" transform="translate(1051.894 -370.514)">
        <g id="Group_42" data-name="Group 42">
          <g id="Group_37" data-name="Group 37" transform="translate(0 15.31)">
            <g id="Group_36" data-name="Group 36">
              <path id="Path_20" data-name="Path 20" d="M353.777,53.509c3.274,2.644,6.66,5.141,9.934,7.785.565.457,1.376-.345.8-.8-3.274-2.644-6.66-5.141-9.934-7.785C354.012,52.252,353.2,53.054,353.777,53.509Z" transform="translate(-353.583 -52.568)" fill="#263238"/>
            </g>
          </g>
          <g id="Group_39" data-name="Group 39" transform="translate(31.938)">
            <g id="Group_38" data-name="Group 38">
              <path id="Path_21" data-name="Path 21" d="M375.755,63.775V43.036a.57.57,0,0,0-1.139,0V63.775a.57.57,0,0,0,1.139,0Z" transform="translate(-374.616 -42.486)" fill="#263238"/>
            </g>
          </g>
          <g id="Group_41" data-name="Group 41" transform="translate(53.756 14.605)">
            <g id="Group_40" data-name="Group 40">
              <path id="Path_22" data-name="Path 22" d="M389.952,62.2l8.784-9.121c.509-.528-.3-1.335-.8-.8L389.152,61.4C388.643,61.928,389.447,62.735,389.952,62.2Z" transform="translate(-388.985 -52.104)" fill="#263238"/>
            </g>
          </g>
        </g>
      </g>
      <g id="Light_Bulb" transform="translate(1038.029 -336.641)">
        <g id="Group_47" data-name="Group 47">
          <g id="Group_46" data-name="Group 46">
            <path id="Path_23" data-name="Path 23" d="M358.743,137.433s3.07,12.425,4.86,14.793,38.453,1.786,39.985,0,4.526-14.793,4.526-14.793Z" transform="translate(-335.043 -23.135)" fill="#263238"/>
            <path id="Path_24" data-name="Path 24" d="M358.743,137.433s3.07,12.425,4.86,14.793,38.453,1.786,39.985,0,4.526-14.793,4.526-14.793Z" transform="translate(-335.043 -23.135)" fill="#fff" opacity="0.2"/>
            <g id="Group_45" data-name="Group 45">
              <g id="Group_44" data-name="Group 44">
                <g id="Group_43" data-name="Group 43">
                  <path id="Path_25" data-name="Path 25" d="M392.09,62.163a48.386,48.386,0,0,0-31.67,85.449c2.044,1.685,5.166,3.725,5.1,7.952,0,.129.214,10.574.214,10.574h50.893s.216-10.852.216-10.975c0-3.722,2.88-5.327,5-7a48.321,48.321,0,0,0-29.751-86Z" transform="translate(-343.135 -62.16)" fill="#338dd7"/>
                  <path id="Path_26" data-name="Path 26" d="M408.079,81.73c0,9.42-11.025,17.075-24.7,17.075s-24.7-7.656-24.7-17.075,11.025-17.093,24.7-17.093S408.079,72.293,408.079,81.73Z" transform="translate(-335.072 -60.875)" fill="#fff" opacity="0.2"/>
                </g>
                <path id="Path_27" data-name="Path 27" d="M352.445,121.824a37.178,37.178,0,0,1,6.78-45.936" transform="translate(-340.927 -55.042)" fill="none" stroke="#fff" stroke-miterlimit="10" stroke-width="0.5"/>
                <path id="Path_28" data-name="Path 28" d="M369.751,139.584a84.667,84.667,0,0,0,1.865-39.434c-.4-2.1-1.353-4.637-3.24-4.684-1.688-.043-2.8,2.033-3.163,3.915-1.288,6.649,2.159,13.4,6.569,18,2.387,2.486,5.281,4.654,8.512,4.813s6.336-1.76,8.684-4.315a22.084,22.084,0,0,0,5.1-19.384c-.688-2.888-2.739-6-5.319-5.444-1.555.333-2.691,1.974-3.092,3.719a15.418,15.418,0,0,0,.024,5.371A164.228,164.228,0,0,0,395,139.549" transform="translate(-331.831 -46.18)" fill="none" stroke="#263238" stroke-miterlimit="10" stroke-width="1"/>
              </g>
            </g>
            <path id="Path_29" data-name="Path 29" d="M414.227,134.393h-57.47a2.4,2.4,0,0,1-2.4-2.4v-1.335a2.4,2.4,0,0,1,2.4-2.4h57.47a2.4,2.4,0,0,1,2.4,2.4v1.335A2.4,2.4,0,0,1,414.227,134.393Z" transform="translate(-337.319 -27.896)" fill="#263238"/>
            <path id="Path_30" data-name="Path 30" d="M414.227,134.393h-57.47a2.4,2.4,0,0,1-2.4-2.4v-1.335a2.4,2.4,0,0,1,2.4-2.4h57.47a2.4,2.4,0,0,1,2.4,2.4v1.335A2.4,2.4,0,0,1,414.227,134.393Z" transform="translate(-337.319 -27.896)" fill="#fff" opacity="0.3"/>
            <path id="Path_31" data-name="Path 31" d="M412.9,138.239H357.39a2.371,2.371,0,0,1-2.372-2.372v-1.2a2.371,2.371,0,0,1,2.372-2.372h55.517a2.372,2.372,0,0,1,2.372,2.372v1.2A2.374,2.374,0,0,1,412.9,138.239Z" transform="translate(-336.974 -25.798)" fill="#263238"/>
            <path id="Path_32" data-name="Path 32" d="M412.9,138.239H357.39a2.371,2.371,0,0,1-2.372-2.372v-1.2a2.371,2.371,0,0,1,2.372-2.372h55.517a2.372,2.372,0,0,1,2.372,2.372v1.2A2.374,2.374,0,0,1,412.9,138.239Z" transform="translate(-336.974 -25.798)" fill="#fff" opacity="0.3"/>
            <path id="Path_33" data-name="Path 33" d="M409.522,142.024H359.4a2.372,2.372,0,0,1-2.372-2.372v-1.2a2.371,2.371,0,0,1,2.372-2.372h50.121a2.371,2.371,0,0,1,2.372,2.372v1.2a2.371,2.371,0,0,1-2.371,2.372Z" transform="translate(-335.931 -23.836)" fill="#263238"/>
            <path id="Path_34" data-name="Path 34" d="M409.522,142.024H359.4a2.372,2.372,0,0,1-2.372-2.372v-1.2a2.371,2.371,0,0,1,2.372-2.372h50.121a2.371,2.371,0,0,1,2.372,2.372v1.2a2.371,2.371,0,0,1-2.371,2.372Z" transform="translate(-335.931 -23.836)" fill="#fff" opacity="0.3"/>
          </g>
        </g>
      </g>
      <g id="Speech_Bubble_2" transform="translate(1355.186 127.947)">
        <g id="Group_52" data-name="Group 52">
          <g id="Group_50" data-name="Group 50">
            <g id="Group_49" data-name="Group 49">
              <g id="Group_48" data-name="Group 48" transform="translate(4.786 3.082)">
                <path id="Path_35" data-name="Path 35" d="M588.213,112.854a31.808,31.808,0,1,0-2.153,52.339l7.616,2.193a1.1,1.1,0,0,0,1.4-1.169l-.846-8.424c.109-.14.231-.263.337-.4a31.81,31.81,0,0,0-6.354-44.534Z" transform="translate(-537.376 -106.487)" fill="#338dd7"/>
              </g>
              <path id="Path_36" data-name="Path 36" d="M534.262,134.409a31.531,31.531,0,0,1,12.943-26.779" transform="translate(-534.224 -102.814)" fill="none" stroke="#407bff" stroke-linecap="round" stroke-linejoin="round" stroke-miterlimit="10" stroke-width="1"/>
              <path id="Path_37" data-name="Path 37" d="M545.38,106.658a11.512,11.512,0,0,1,4.151-2.2" transform="translate(-528.44 -104.458)" fill="none" stroke="#407bff" stroke-linecap="round" stroke-linejoin="round" stroke-miterlimit="10" stroke-width="1"/>
            </g>
          </g>
          <g id="Group_51" data-name="Group 51" transform="translate(18.965 24.199)">
            <path id="Path_38" data-name="Path 38" d="M562.882,147.775l-16.168-12.04,4.2-5.643,10.842,8.074,14.9-17.772,5.39,4.519Z" transform="translate(-546.714 -120.395)" fill="#fff"/>
          </g>
        </g>
      </g>
      <g id="Speech_Bubble_1" transform="translate(-210.181 84.367)">
        <g id="Group_57" data-name="Group 57">
          <g id="Group_55" data-name="Group 55">
            <g id="Group_54" data-name="Group 54">
              <g id="Group_53" data-name="Group 53" transform="translate(0 5.174)">
                <path id="Path_39" data-name="Path 39" d="M270.685,156.03a31.808,31.808,0,1,0-52.321,2.556l-1.5,7.784a1.1,1.1,0,0,0,1.291,1.291l8.315-1.6c.149.1.282.207.434.3a31.809,31.809,0,0,0,43.781-10.331Z" transform="translate(-211.829 -107.543)" fill="#338dd7"/>
              </g>
              <path id="Path_40" data-name="Path 40" d="M232.776,104.425a31.529,31.529,0,0,1,27.833,10.486" transform="translate(-200.97 -104.135)" fill="none" stroke="#407bff" stroke-linecap="round" stroke-linejoin="round" stroke-miterlimit="10" stroke-width="1"/>
              <path id="Path_41" data-name="Path 41" d="M253.056,113.674a11.5,11.5,0,0,1,2.563,3.937" transform="translate(-190.456 -99.19)" fill="none" stroke="#407bff" stroke-linecap="round" stroke-linejoin="round" stroke-miterlimit="10" stroke-width="1"/>
            </g>
          </g>
          <g id="Group_56" data-name="Group 56" transform="translate(14.141 24.69)">
            <path id="Path_42" data-name="Path 42" d="M237.31,147.775l-16.168-12.04,4.2-5.643,10.842,8.074,14.9-17.772,5.39,4.519Z" transform="translate(-221.142 -120.395)" fill="#fff"/>
          </g>
        </g>
      </g>
      <g id="Gear" transform="translate(73.155 523.9)">
        <path id="Path_43" data-name="Path 43" d="M398.643,310.505a22.585,22.585,0,0,0-8,2.758l-3.2-3-6.339,5.6,2.583,3.546a22.6,22.6,0,0,0-3.726,7.6l-4.372.14-.524,8.441,4.32.679a22.606,22.606,0,0,0,2.758,8l-3,3.2,5.6,6.338,3.546-2.581a22.633,22.633,0,0,0,7.6,3.726l.14,4.372,8.441.524.679-4.32a22.616,22.616,0,0,0,8-2.758l3.2,3,6.339-5.6-2.581-3.546a22.6,22.6,0,0,0,3.725-7.6l4.372-.14.524-8.441-4.32-.679a22.623,22.623,0,0,0-2.756-8l3-3.2-5.6-6.338-3.546,2.583a22.556,22.556,0,0,0-7.6-3.725l-.14-4.372-8.441-.524Zm14.676,23.214A11.448,11.448,0,1,1,402.6,321.584a11.448,11.448,0,0,1,10.719,12.135Z" transform="translate(-375.068 -306.187)" fill="#338dd7"/>
      </g>
      <g id="Character_2" transform="translate(973.877 186.451)">
        <g id="Group_58" data-name="Group 58" transform="translate(244.371 88.733)">
          <path id="Path_44" data-name="Path 44" d="M552.96,241.89s-6.315-3.362-8.272-5.983-2.288-2.3-2.437-2.363-8.068-.349-9.224-1.25-1.37-2.46-.529-2.679,7.679.814,9.445.512-1.093-.978-5.8-1.487-8.745-1.508-8.446-3.758,11.113.72,14.038.528-2.51-.779-6.584-2.2-7.49-1.907-6.622-4.211,14.029,2.826,16.269,2.193.021-2.155-2.171-3.392-6.494-1.209-7.354-2.782.079-2.3,1.652-2.373,8.965,1.559,10.743,2.978c0,0,.908-1.875,2-1.687s1.711,4.652,2.855,6.2,5.192,12.123,5.192,12.123Z" transform="translate(-527.679 -186.969)" fill="#ffb463"/>
          <path id="Path_45" data-name="Path 45" d="M624.26,195.734c-10.433,10.336-23.543,51.314-23.076,52.659s-51.136-11.085-51.136-11.085-9.023,15.385-4.958,18.142,64.664,23.844,70.522,15.682c4.832-6.733,17.565-46.956,21.512-62.945Z" transform="translate(-519.197 -195.734)" fill="#407bff"/>
          <path id="Path_46" data-name="Path 46" d="M624.26,195.734c-10.433,10.336-23.543,51.314-23.076,52.659s-51.136-11.085-51.136-11.085-9.023,15.385-4.958,18.142,64.664,23.844,70.522,15.682c4.832-6.733,17.565-46.956,21.512-62.945Z" transform="translate(-519.197 -195.734)" fill="#fff" opacity="0.7"/>
        </g>
        <g id="Group_81" data-name="Group 81">
          <g id="Group_62" data-name="Group 62" transform="translate(365.773 152.412)">
            <path id="Path_47" data-name="Path 47" d="M610.625,268.869s-2.373,74.936-1.5,124.26c7.22,38.766,60.4,105.753,55.133,116.258.178,2.349,11.452-5.706,13.663-7.128,0,0-11.63-74.933-35.671-116.056,13.172-49.7,4.381-119.576,4.381-119.576Z" transform="translate(-606.958 -222.659)" fill="#ffbcb4"/>
            <path id="Path_48" data-name="Path 48" d="M609.008,347.911s22.889,3.379,35.125-6.78l.589-2.883-35.794,5.1Z" transform="translate(-606.958 -185.528)" opacity="0.3"/>
            <path id="Path_49" data-name="Path 49" d="M615.273,261.807s45.063,78.552,65.12,117.687c21.05,41.115,53.141,111.1,58.524,140.765,2.853.774,7.413-.29,11.9-3.26,0,0-7.126-102.683-39.584-143.968C691.6,267.512,657.51,250.237,657.51,250.237Z" transform="translate(-603.669 -231.156)" fill="#ffbcb4"/>
            <path id="Path_50" data-name="Path 50" d="M655.792,335.626l2.767,5.319L688.253,326l-.995-4.51Z" transform="translate(-582.662 -194.217)" opacity="0.3"/>
            <g id="Group_59" data-name="Group 59" transform="translate(109.742 280.941)">
              <path id="Path_51" data-name="Path 51" d="M717.174,443.573h-2.823l-.79-3.5-9.36,4.167H680.508s-3.772-3.792,7.522-6.812a8.551,8.551,0,0,0,1.6-.612c6.022-2.823,14.592-12.36,14.592-12.36h13.012a16.574,16.574,0,0,1,1.066,1.875C719.74,429.258,722.15,435.261,717.174,443.573Z" transform="translate(-679.904 -421.774)" fill="#263238"/>
              <path id="Path_52" data-name="Path 52" d="M714.966,427.391h0c-1.717-1.974-9.537,6.5-15.263,9.36-5.114,2.546-10.86,3.673-13.406,1.086,6.022-2.824,15.5-15.145,15.5-15.145h10.465a46.277,46.277,0,0,1,2.7,4.7Z" transform="translate(-676.59 -422.691)" fill="#ffbcb4"/>
            </g>
            <path id="Path_53" data-name="Path 53" d="M667.974,442.339h-2.823l-.79-3.5L655,443.01H631.308s-3.772-3.792,7.522-6.812a8.555,8.555,0,0,0,1.6-.612c6.022-2.823,14.591-12.36,14.591-12.36h13.012A16.586,16.586,0,0,1,669.1,425.1C670.6,428.023,672.97,434.027,667.974,442.339Z" transform="translate(-595.669 -141.472)" fill="#263238"/>
            <path id="Path_54" data-name="Path 54" d="M665.766,426.157h0c-1.717-1.974-9.537,6.5-15.263,9.36-5.114,2.546-10.86,3.673-13.406,1.086,6.022-2.823,15.5-15.145,15.5-15.145h10.465S665.154,424.854,665.766,426.157Z" transform="translate(-592.355 -142.389)" fill="#ffbcb4"/>
            <path id="Path_55" data-name="Path 55" d="M662.26,241.124l-.319-3.453c-18.95,6.39-34.443,12.483-54.31,14.767l1.113,6.247c-1.222,11.243-.712,103.457-.712,137.223,26.681.471,72.051-14.4,107.543-31.887C712.462,348.851,693.1,255.025,662.26,241.124Z" transform="translate(-607.631 -237.671)" fill="#263238"/>
            <g id="Group_61" data-name="Group 61" transform="translate(48.609 52.066)">
              <g id="Group_60" data-name="Group 60">
                <path id="Path_56" data-name="Path 56" d="M645.739,272.373a589.706,589.706,0,0,0-6.095,68.284c-.023.733,1.116.732,1.139,0a587.239,587.239,0,0,1,6.054-67.982c.106-.717-.99-1.026-1.1-.3Z" transform="translate(-639.644 -271.96)"/>
              </g>
            </g>
          </g>
          <g id="Group_63" data-name="Group 63" transform="translate(308.037 11.933)">
            <path id="Path_57" data-name="Path 57" d="M650.542,203.807c-2.616-10.807-1.613-22.307-4.824-32.952-2.786-9.235-8.941-17.6-17.447-22.151-8.119-4.341-18.372-4.851-26.548-.688-5.644,1.525-10.169,6.432-12.56,11.888-2.719,6.2-3.242,13.1-4.016,19.834s-1.921,13.663-5.649,19.316c-1.881,2.852-4.35,5.266-6.387,8.01s-3.676,6-3.489,9.416,2.715,6.856,6.121,7.108c3.061.228,6.094-2.024,9.032-1.134,2.414.732,3.706,3.254,5.147,5.327,4.183,6.021,11.37,9.449,18.627,10.486s14.647-.061,21.825-1.549c4.739-.982,9.519-2.165,13.71-4.584s7.782-6.253,8.9-10.962C654.355,215.422,651.933,209.553,650.542,203.807Z" transform="translate(-569.608 -145.156)" fill="#263238"/>
          </g>
          <path id="Path_58" data-name="Path 58" d="M599.592,230.991l-5.222-15.116-2.458,13.715Z" transform="translate(-250.007 -96.559)" opacity="0.3"/>
          <path id="Path_59" data-name="Path 59" d="M592.6,215.744c-.641,12.2,3.076,23.3,6.664,31.017,4.388,10.18,10.275,44.033,18.328,43.083,6.932,1.149,35.172-11.071,52.593-20.456,7.738-5.9-15.623-16.126-15.833-65.1-.006-8.456-8.787-20.91-17.306-18.533-2.271.638-4.666,1.344-7.086,2.146a200.744,200.744,0,0,0-25.148,9.641c-2.638,1.286,2.587-1.415,0,0C595.5,202.4,593.621,206,592.6,215.744Z" transform="translate(-249.685 -112.331)" fill="#407bff"/>
          <path id="Path_60" data-name="Path 60" d="M592.6,215.744c-.641,12.2,3.076,23.3,6.664,31.017,4.388,10.18,10.275,44.033,18.328,43.083,6.932,1.149,35.172-11.071,52.593-20.456,7.738-5.9-15.623-16.126-15.833-65.1-.006-8.456-8.787-20.91-17.306-18.533-2.271.638-4.666,1.344-7.086,2.146a200.744,200.744,0,0,0-25.148,9.641c-2.638,1.286,2.587-1.415,0,0C595.5,202.4,593.621,206,592.6,215.744Z" transform="translate(-249.685 -112.331)" fill="#fff" opacity="0.7"/>
          <path id="Path_61" data-name="Path 61" d="M615.065,169.58c.671,8.936,2.531,23.865,9.785,27.434,0,0-2.657,7.489-14.732,13.8a136.664,136.664,0,0,0,.7,15s-5.4-9.923-5.069-13.727C591.463,215.8,600.18,207,600.18,207c8.535-5.472,6.367-12.307,3.023-18.267Z" transform="translate(-247.085 -120.56)" fill="#ffbcb4"/>
          <path id="Path_62" data-name="Path 62" d="M608.03,176.342l-5.876,11.979a11.73,11.73,0,0,1,1.414,3.807c3.152-2.067,7.34-7.694,6.394-11.525a12.85,12.85,0,0,0-1.932-4.261Z" transform="translate(-244.697 -117.055)" opacity="0.2"/>
          <path id="Path_63" data-name="Path 63" d="M623.607,164.639c2.17,14.061,3.4,19.952-1.883,28.943-7.951,13.517-25.271,13.992-31.523,1.063-5.623-11.624-8.259-32.683,3.775-41.824a18.242,18.242,0,0,1,29.631,11.818Z" transform="translate(-253.351 -131.379)" fill="#ffbcb4"/>
          <path id="Path_64" data-name="Path 64" d="M601.419,158.886c10.6,6.824,10.338,52.723,25.06,46.8s-9.669-54.677-20.247-56.337S601.419,158.886,601.419,158.886Z" transform="translate(-245.891 -131.136)" fill="#263238"/>
          <path id="Path_65" data-name="Path 65" d="M613.954,150.116c1.321,9.65.692,12.489-8.174,12.884a9.87,9.87,0,0,0-.679-6.651,9.418,9.418,0,0,1-2.715,6.532,34.974,34.974,0,0,0-7.389.311,9.4,9.4,0,0,0-.985-4.028,8.856,8.856,0,0,1-1.716,4.8,23.658,23.658,0,0,0-6.755,3.816C582.211,158.252,594.639,142.354,613.954,150.116Z" transform="translate(-253.589 -131.724)" fill="#263238"/>
          <path id="Path_66" data-name="Path 66" d="M616.846,168.033a9.738,9.738,0,0,1-3.846,6.89c-2.782,1.906-5.348-1.145-5.57-5.025-.208-3.488.976-8.723,4.262-8.965S617.279,164.4,616.846,168.033Z" transform="translate(-241.973 -125.049)" fill="#ffbcb4"/>
          <g id="Group_66" data-name="Group 66" transform="translate(330.692 34.123)">
            <path id="Path_67" data-name="Path 67" d="M599.092,166.339c.4,1.289.014,2.618-.867,2.969s-1.919-.411-2.32-1.7-.014-2.619.867-2.969S598.69,165.048,599.092,166.339Z" transform="translate(-578.711 -157.29)" fill="#263238"/>
            <path id="Path_68" data-name="Path 68" d="M601.23,161.882a.647.647,0,0,1-.538-.024,5.2,5.2,0,0,0-4.927-.039.649.649,0,0,1-.926-.246.771.771,0,0,1,.276-.995,6.484,6.484,0,0,1,6.23-.024.724.724,0,0,1,.275.967.746.746,0,0,1-.39.361Z" transform="translate(-579.224 -159.769)" fill="#263238"/>
            <path id="Path_69" data-name="Path 69" d="M585.177,164.886a.656.656,0,0,1-.471-.2.7.7,0,0,1,.059-.99,7.425,7.425,0,0,1,6.218-2.168.645.645,0,0,1,.495.821.77.77,0,0,1-.867.554,5.938,5.938,0,0,0-4.908,1.769.751.751,0,0,1-.526.214Z" transform="translate(-584.528 -158.892)" fill="#263238"/>
            <path id="Path_70" data-name="Path 70" d="M592.086,166.372a48.936,48.936,0,0,1-2.247,9.724,1.111,1.111,0,0,0,.963,1.494,7.13,7.13,0,0,0,3.732-.984Z" transform="translate(-581.813 -156.346)" fill="#ff7168"/>
            <path id="Path_71" data-name="Path 71" d="M597.784,164.512l-3.371.425S598.64,166.424,597.784,164.512Z" transform="translate(-579.403 -157.311)" fill="#263238"/>
            <path id="Path_72" data-name="Path 72" d="M590.952,168.342c.4,1.289.014,2.618-.869,2.969s-1.919-.411-2.32-1.7-.014-2.619.867-2.969S590.551,167.053,590.952,168.342Z" transform="translate(-582.932 -156.251)" fill="#263238"/>
            <path id="Path_73" data-name="Path 73" d="M589.522,166.592l-3.369.425S589.147,168.549,589.522,166.592Z" transform="translate(-583.685 -156.232)" fill="#263238"/>
            <g id="Group_65" data-name="Group 65" transform="translate(38.915 4.019)" opacity="0.3">
              <g id="Group_64" data-name="Group 64">
                <path id="Path_74" data-name="Path 74" d="M610.443,163.468a3.238,3.238,0,0,1,1.6,2.812,9.665,9.665,0,0,1-1.192,4.265.587.587,0,0,0,.2.779.572.572,0,0,0,.779-.2,10.4,10.4,0,0,0,1.332-5.061,4.34,4.34,0,0,0-2.152-3.574c-.65-.334-1.227.648-.574.984Z" transform="translate(-610.156 -162.416)"/>
              </g>
            </g>
          </g>
          <g id="Group_67" data-name="Group 67" transform="translate(344.793 51.867)">
            <path id="Path_75" data-name="Path 75" d="M593.814,178.191A36.574,36.574,0,0,1,597.6,181.9c.267-.162.533-.325.791-.5,3.561-2.29,4.457-4.528,4.369-6.315a5.443,5.443,0,0,0-.787-2.461,5.3,5.3,0,0,0-.9-1.174c-1.163,2.341-4.318,4.731-6.056,5.937C594.292,177.9,593.814,178.191,593.814,178.191Z" transform="translate(-593.814 -171.455)" fill="#263238"/>
            <path id="Path_76" data-name="Path 76" d="M594.6,177.392l1.143,1.066c3.348-2.165,5.416-4.138,5.813-5.829a5.294,5.294,0,0,0-.9-1.174C599.5,173.8,596.344,176.186,594.6,177.392Z" transform="translate(-593.404 -171.455)" fill="#fff"/>
            <path id="Path_77" data-name="Path 77" d="M596.826,180.164c3.561-2.29,4.457-4.528,4.369-6.315a13.631,13.631,0,0,0-3.45,3.325A5.107,5.107,0,0,0,596.826,180.164Z" transform="translate(-592.253 -170.214)" fill="#ff3f3e"/>
          </g>
          <path id="Path_78" data-name="Path 78" d="M601.921,261.332l.995,3.116s23.481,1.673,27.692-1.321S646.4,205.265,646.4,205.265,624.983,255.5,624,256.553,601.921,261.332,601.921,261.332Z" transform="translate(-244.818 -102.06)" opacity="0.3"/>
          <g id="Group_69" data-name="Group 69" transform="translate(328.227 16.032)" opacity="0.3">
            <g id="Group_68" data-name="Group 68">
              <path id="Path_79" data-name="Path 79" d="M595.91,147.9a20.838,20.838,0,0,0-13.01,18.371c-.026.733,1.113.732,1.139,0A19.659,19.659,0,0,1,596.213,149c.673-.267.38-1.37-.3-1.1Z" transform="translate(-582.904 -147.855)"/>
            </g>
          </g>
          <g id="Group_73" data-name="Group 73">
            <path id="Path_80" data-name="Path 80" d="M450.394,182.442a138.663,138.663,0,0,0-37,36.423l-25.651-8.16-20.3,47.766,23.68,12.806a138.615,138.615,0,0,0-.544,51.912L366.74,335.523l19.424,48.128,25.722-7.667a138.635,138.635,0,0,0,36.423,37l-8.16,25.654,47.766,20.3,12.8-23.674a138.727,138.727,0,0,0,51.915.542l12.334,23.84,48.13-19.422L605.427,414.5a138.644,138.644,0,0,0,36.994-36.421l25.65,8.156,20.3-47.762L664.7,325.66a138.677,138.677,0,0,0,.539-51.912l23.839-12.334-19.424-48.128-25.722,7.667a138.646,138.646,0,0,0-36.421-37l8.157-25.652L567.9,138l-12.8,23.677a138.647,138.647,0,0,0-51.912-.544L490.854,137.3l-48.131,19.424Zm142.674,89.732a70.259,70.259,0,1,1-91.447-38.86,70.259,70.259,0,0,1,91.447,38.86Z" transform="translate(-366.743 -137.296)" fill="#338dd7"/>
            <g id="Group_72" data-name="Group 72" transform="translate(84.923)">
              <g id="Group_70" data-name="Group 70" transform="translate(10.572)" opacity="0.3">
                <path id="Path_81" data-name="Path 81" d="M431.327,202.976c-1.719,7.676-2.972,16.089.585,23.106,4.349,8.579,13.845,11.927,23.522,14.547a70.244,70.244,0,0,1,48-11.955c-3.031-17.924,7.152-36.985,20.135-50.564,10.5-10.984,22.951-20.139,33.752-30.75L535.3,138l-12.8,23.68a138.647,138.647,0,0,0-51.912-.544L458.252,137.3l-1.963.793A237.944,237.944,0,0,0,431.327,202.976Z" transform="translate(-429.634 -137.297)" fill="#fff"/>
              </g>
              <g id="Group_71" data-name="Group 71" transform="translate(0 182.856)" opacity="0.3">
                <path id="Path_82" data-name="Path 82" d="M569.63,306.908a154.145,154.145,0,0,0-3.9-49.187,70.1,70.1,0,0,1-40.524,43.468c-.091.036-.182.067-.273.1a86.639,86.639,0,0,1-16.686,25.323c-23.395,24.508-59.1,34.007-85.581,54.48l36.25,15.4,12.8-23.674a138.728,138.728,0,0,0,51.915.542l12.339,23.84,11.66-4.706C558.145,364.747,567.348,336.393,569.63,306.908Z" transform="translate(-422.671 -257.721)" fill="#fff"/>
              </g>
            </g>
          </g>
          <path id="Path_83" data-name="Path 83" d="M583.161,241.89s-6.315-3.362-8.272-5.983-2.288-2.3-2.437-2.363-8.067-.349-9.224-1.25-1.37-2.46-.529-2.679,7.679.814,9.445.512-1.092-.978-5.8-1.487-8.745-1.508-8.446-3.758,11.113.72,14.038.528-2.51-.779-6.584-2.2-7.49-1.907-6.62-4.211,14.029,2.826,16.268,2.193.021-2.155-2.171-3.392-6.494-1.209-7.354-2.782.079-2.3,1.652-2.373,8.965,1.559,10.743,2.978c0,0,.906-1.875,2-1.687s1.711,4.652,2.855,6.2,5.192,12.123,5.192,12.123Z" transform="translate(-267.65 -98.237)" fill="#ffbcb4"/>
          <g id="Group_78" data-name="Group 78" transform="translate(315.07 73.287)">
            <path id="Path_84" data-name="Path 84" d="M652.484,186.9c3.822,3.265,10.82,11.047,10.442,16.057-1.18,15.64-15.977,61.321-20.81,68.053-5.857,8.162-62.76-7.531-66.825-10.287s4.958-18.142,4.958-18.142,45.266,5.636,44.8,4.29,8.219-37.03,15.455-49.132,8.233-13.97,11.983-10.839Z" transform="translate(-574.239 -185.562)" fill="#407bff"/>
            <path id="Path_85" data-name="Path 85" d="M652.484,186.9c3.822,3.265,10.82,11.047,10.442,16.057-1.18,15.64-15.977,61.321-20.81,68.053-5.857,8.162-62.76-7.531-66.825-10.287s4.958-18.142,4.958-18.142,45.266,5.636,44.8,4.29,8.219-37.03,15.455-49.132,8.233-13.97,11.983-10.839Z" transform="translate(-574.239 -185.562)" fill="#fff" opacity="0.7"/>
            <g id="Group_75" data-name="Group 75" transform="translate(50.242 4.936)" opacity="0.3">
              <g id="Group_74" data-name="Group 74">
                <path id="Path_86" data-name="Path 86" d="M608.441,245.34c2.618-11.123,5.538-22.192,8.934-33.1,1.486-4.772,3.053-9.536,4.927-14.173,1.119-2.77,2.3-6.115,4.452-8.279a.569.569,0,0,0-.8-.8c-2.038,2.047-3.193,5.059-4.288,7.67-1.95,4.649-3.547,9.448-5.061,14.254-3.542,11.243-6.557,22.661-9.256,34.133-.17.714.928,1.017,1.1.3Z" transform="translate(-607.327 -188.812)"/>
              </g>
            </g>
            <g id="Group_77" data-name="Group 77" transform="translate(50.242 61.075)" opacity="0.3">
              <g id="Group_76" data-name="Group 76">
                <path id="Path_87" data-name="Path 87" d="M607.6,226.833a12.732,12.732,0,0,1,6.347,6.5.574.574,0,0,0,.779.2.585.585,0,0,0,.2-.779,13.673,13.673,0,0,0-6.757-6.909.586.586,0,0,0-.779.2.575.575,0,0,0,.205.779Z" transform="translate(-607.327 -225.784)"/>
              </g>
            </g>
          </g>
          <g id="Group_80" data-name="Group 80" transform="translate(315.078 147.764)">
            <g id="Group_79" data-name="Group 79">
              <path id="Path_88" data-name="Path 88" d="M574.538,235.653a92.235,92.235,0,0,0,11.615,4.1,147.544,147.544,0,0,0,17.342,4.482c.717.131,1.023-.967.3-1.1a146.066,146.066,0,0,1-16.955-4.362,91.71,91.71,0,0,1-11.728-4.109c-.661-.308-1.24.673-.575.984Z" transform="translate(-574.244 -234.61)"/>
            </g>
          </g>
        </g>
      </g>
      <g id="Character_1" transform="translate(-404.179 161.29)">
        <g id="Group_131" data-name="Group 131" transform="translate(0 69.165)">
          <g id="Group_128" data-name="Group 128" transform="translate(0 114.287)">
            <g id="Group_104" data-name="Group 104" transform="translate(4.062 239.444)">
              <g id="Group_85" data-name="Group 85" transform="translate(1.902)">
                <g id="Group_84" data-name="Group 84">
                  <g id="Group_83" data-name="Group 83">
                    <g id="Group_82" data-name="Group 82">
                      <path id="Path_89" data-name="Path 89" d="M86.184,410.54l-3.345,24.977,15.491.51,16.956-36.793Z" transform="translate(-82.839 -399.234)" fill="#263238"/>
                    </g>
                  </g>
                </g>
              </g>
              <g id="Group_103" data-name="Group 103" transform="translate(0 27.636)">
                <g id="Group_102" data-name="Group 102">
                  <g id="Group_101" data-name="Group 101">
                    <g id="Group_100" data-name="Group 100">
                      <g id="Group_99" data-name="Group 99">
                        <g id="Group_98" data-name="Group 98">
                          <path id="Path_90" data-name="Path 90" d="M85.456,423.3c2,1.963,6.473,1.812,8.528.3l.146-2.909c.434-2.445,1.35-3.579,3.98-3.167,1.289.2,2.87,1.816,3.874,4.194a16.083,16.083,0,0,0,3.993,6.028s11.613,6.2,15.8,7.617c2.5.846,5.838,2.109,7.569,4.86a13.371,13.371,0,0,1,1.306,2.806,11.724,11.724,0,0,1,.24,2.941l-29.86-.876s-2.994-1.865-4.29-1.855a4.112,4.112,0,0,0-3.394,1.992l-10.86-.238s-.159-1.681-.389-4.129h0c-.1-1.1-.22-2.36-.345-3.687-.534-5.7.375-12.442.237-14.055C81.748,420.287,85.456,423.3,85.456,423.3Z" transform="translate(-81.586 -417.434)" fill="#263238"/>
                          <g id="Group_89" data-name="Group 89" transform="translate(28.353 13.262)">
                            <g id="Group_88" data-name="Group 88">
                              <g id="Group_87" data-name="Group 87">
                                <g id="Group_86" data-name="Group 86">
                                  <path id="Path_91" data-name="Path 91" d="M102.561,426.277a.416.416,0,0,0-.5-.049,4.717,4.717,0,0,0-1.761,1.81c-.223.407.415.82.641.408a4.18,4.18,0,0,1,1.546-1.6.348.348,0,0,0,.076-.562.011.011,0,0,0,0-.007Z" transform="translate(-100.258 -426.169)" fill="#407bff"/>
                                </g>
                              </g>
                            </g>
                          </g>
                          <g id="Group_93" data-name="Group 93" transform="translate(26.086 11.955)">
                            <g id="Group_92" data-name="Group 92">
                              <g id="Group_91" data-name="Group 91">
                                <g id="Group_90" data-name="Group 90">
                                  <path id="Path_92" data-name="Path 92" d="M101.068,425.416a.418.418,0,0,0-.5-.05,4.739,4.739,0,0,0-1.761,1.81c-.223.407.415.82.641.408a4.18,4.18,0,0,1,1.546-1.6.348.348,0,0,0,.076-.562Z" transform="translate(-98.765 -425.308)" fill="#407bff"/>
                                </g>
                              </g>
                            </g>
                          </g>
                          <g id="Group_97" data-name="Group 97" transform="translate(23.744 10.729)">
                            <g id="Group_96" data-name="Group 96">
                              <g id="Group_95" data-name="Group 95">
                                <g id="Group_94" data-name="Group 94">
                                  <path id="Path_93" data-name="Path 93" d="M99.526,424.609a.418.418,0,0,0-.5-.05,4.728,4.728,0,0,0-1.761,1.81c-.223.407.415.82.641.408a4.191,4.191,0,0,1,1.546-1.6.349.349,0,0,0,.076-.562Z" transform="translate(-97.223 -424.501)" fill="#407bff"/>
                                </g>
                              </g>
                            </g>
                          </g>
                        </g>
                      </g>
                    </g>
                  </g>
                </g>
              </g>
              <path id="Path_94" data-name="Path 94" d="M129.94,433.9a14.552,14.552,0,0,1,.559,1.394,11.72,11.72,0,0,1,.24,2.941l-29.86-.876s-2.994-1.865-4.29-1.856a4.112,4.112,0,0,0-3.389,2l-10.86-.238s-.159-1.682-.389-4.129h0c-.018-.193-.038-.413-.058-.615Z" transform="translate(-81.431 -381.981)" fill="#fff" opacity="0.2"/>
              <path id="Path_95" data-name="Path 95" d="M98.575,427.088a17.644,17.644,0,0,1,0-3.116,5.956,5.956,0,0,1,1.064-2.894,1.461,1.461,0,0,1,1.2-.706,1.354,1.354,0,0,1,1.026,1.01,3.682,3.682,0,0,1-.316,2.836,13.727,13.727,0,0,1-2.973,2.87" transform="translate(-72.814 -388.277)" fill="none" stroke="#407bff" stroke-miterlimit="10" stroke-width="0.5"/>
              <path id="Path_96" data-name="Path 96" d="M100.308,426.593A17.7,17.7,0,0,0,99,423.764a5.951,5.951,0,0,0-2.179-2.183,1.458,1.458,0,0,0-1.38-.141,1.357,1.357,0,0,0-.51,1.347A3.678,3.678,0,0,0,96.4,425.23a13.69,13.69,0,0,0,3.9,1.364" transform="translate(-74.674 -387.785)" fill="none" stroke="#407bff" stroke-miterlimit="10" stroke-width="0.5"/>
            </g>
            <g id="Group_127" data-name="Group 127" transform="translate(93.592 236.901)">
              <g id="Group_108" data-name="Group 108" transform="translate(1.902)">
                <g id="Group_107" data-name="Group 107">
                  <g id="Group_106" data-name="Group 106">
                    <g id="Group_105" data-name="Group 105">
                      <path id="Path_97" data-name="Path 97" d="M145.146,408.864,141.8,433.841l15.491.51,16.956-36.792Z" transform="translate(-141.801 -397.559)" fill="#263238"/>
                    </g>
                  </g>
                </g>
              </g>
              <g id="Group_126" data-name="Group 126" transform="translate(0 27.635)">
                <g id="Group_125" data-name="Group 125">
                  <g id="Group_124" data-name="Group 124">
                    <g id="Group_123" data-name="Group 123">
                      <g id="Group_122" data-name="Group 122">
                        <g id="Group_121" data-name="Group 121">
                          <path id="Path_98" data-name="Path 98" d="M144.417,421.619c2,1.963,6.472,1.811,8.528.3l.146-2.909c.434-2.445,1.35-3.579,3.98-3.167,1.289.2,2.87,1.816,3.874,4.194a16.083,16.083,0,0,0,3.993,6.028s11.613,6.2,15.8,7.616c2.5.846,5.838,2.109,7.569,4.861a13.448,13.448,0,0,1,1.307,2.806,11.724,11.724,0,0,1,.24,2.941L160,443.411s-2.994-1.865-4.29-1.856a4.112,4.112,0,0,0-3.394,1.992l-10.86-.238s-.159-1.681-.389-4.129h0c-.1-1.1-.22-2.36-.345-3.687-.534-5.7.375-12.442.237-14.055C140.71,418.611,144.417,421.619,144.417,421.619Z" transform="translate(-140.548 -415.759)" fill="#263238"/>
                          <g id="Group_112" data-name="Group 112" transform="translate(28.353 13.262)">
                            <g id="Group_111" data-name="Group 111">
                              <g id="Group_110" data-name="Group 110">
                                <g id="Group_109" data-name="Group 109">
                                  <path id="Path_99" data-name="Path 99" d="M161.523,424.6a.416.416,0,0,0-.495-.049,4.718,4.718,0,0,0-1.761,1.81c-.223.407.415.82.641.409a4.181,4.181,0,0,1,1.546-1.6.348.348,0,0,0,.076-.562.011.011,0,0,0-.007-.008Z" transform="translate(-159.22 -424.493)" fill="#407bff"/>
                                </g>
                              </g>
                            </g>
                          </g>
                          <g id="Group_116" data-name="Group 116" transform="translate(26.084 11.955)">
                            <g id="Group_115" data-name="Group 115">
                              <g id="Group_114" data-name="Group 114">
                                <g id="Group_113" data-name="Group 113">
                                  <path id="Path_100" data-name="Path 100" d="M160.029,423.74a.418.418,0,0,0-.5-.05,4.739,4.739,0,0,0-1.761,1.81c-.223.407.415.82.641.409a4.181,4.181,0,0,1,1.546-1.6.349.349,0,0,0,.076-.562S160.032,423.742,160.029,423.74Z" transform="translate(-157.726 -423.632)" fill="#407bff"/>
                                </g>
                              </g>
                            </g>
                          </g>
                          <g id="Group_120" data-name="Group 120" transform="translate(23.743 10.729)">
                            <g id="Group_119" data-name="Group 119">
                              <g id="Group_118" data-name="Group 118">
                                <g id="Group_117" data-name="Group 117">
                                  <path id="Path_101" data-name="Path 101" d="M158.487,422.933a.418.418,0,0,0-.5-.05,4.728,4.728,0,0,0-1.761,1.81c-.223.407.415.82.641.409a4.191,4.191,0,0,1,1.546-1.6.349.349,0,0,0,.076-.562S158.49,422.935,158.487,422.933Z" transform="translate(-156.184 -422.825)" fill="#407bff"/>
                                </g>
                              </g>
                            </g>
                          </g>
                        </g>
                      </g>
                    </g>
                  </g>
                </g>
              </g>
              <path id="Path_102" data-name="Path 102" d="M188.9,432.224a14.723,14.723,0,0,1,.559,1.392,11.724,11.724,0,0,1,.24,2.941l-29.86-.876s-2.994-1.865-4.29-1.856a4.112,4.112,0,0,0-3.394,1.992l-10.86-.238s-.159-1.682-.389-4.129h0c-.018-.193-.038-.413-.058-.615Z" transform="translate(-140.393 -380.307)" fill="#fff" opacity="0.2"/>
              <path id="Path_103" data-name="Path 103" d="M157.537,425.412a17.791,17.791,0,0,1,0-3.116,5.956,5.956,0,0,1,1.063-2.9,1.461,1.461,0,0,1,1.2-.706,1.356,1.356,0,0,1,1.026,1.01,3.682,3.682,0,0,1-.316,2.836,13.688,13.688,0,0,1-2.972,2.87" transform="translate(-131.776 -386.602)" fill="none" stroke="#407bff" stroke-miterlimit="10" stroke-width="0.5"/>
              <path id="Path_104" data-name="Path 104" d="M159.268,424.917a17.837,17.837,0,0,0-1.307-2.829,5.951,5.951,0,0,0-2.179-2.184,1.459,1.459,0,0,0-1.38-.141,1.354,1.354,0,0,0-.509,1.347,3.679,3.679,0,0,0,1.474,2.443,13.637,13.637,0,0,0,3.9,1.364" transform="translate(-133.636 -386.111)" fill="none" stroke="#407bff" stroke-miterlimit="10" stroke-width="0.5"/>
            </g>
            <path id="Path_105" data-name="Path 105" d="M174.978,241.543s-25.079,56.2-51.117,134.379c-26.926,80.849-44.95,132.851-44.95,132.851l30.765,3.694s52.388-121.6,57.821-136.694,32.53-74.352,32.53-74.352,12.026,86.214,8.4,96.477S169.687,506.2,169.687,506.2l27.472,3.655s46.886-86.606,51.716-124.035,4.567-128.953,4.567-128.953Z" transform="translate(-78.911 -241.543)" fill="#263238"/>
            <path id="Path_106" data-name="Path 106" d="M158.674,283.406l19-7.114-12.032,14.466-2.806,25.007Z" transform="translate(-37.559 -223.528)" opacity="0.2"/>
          </g>
          <g id="Group_130" data-name="Group 130" transform="translate(95.751)">
            <path id="Path_107" data-name="Path 107" d="M191.8,168.846c-1.476.9-34.658,19.1-34.658,19.1l-1.016,58.379S139.3,275.5,142.336,283.276s45.776,29.084,61.987,26.219,24.5-24.726,24.5-24.726,12.652-63.823,13.308-81.791-4.75-27.719-5.189-28.949c-.15-.421-3.669-1.462-8.23-2.65-8.763-2.282-21.378-5.1-21.378-5.1Z" transform="translate(-141.97 -166.277)" fill="#407bff"/>
            <path id="Path_108" data-name="Path 108" d="M191.8,168.846c-1.476.9-34.658,19.1-34.658,19.1l-1.016,58.379S139.3,275.5,142.336,283.276s45.776,29.084,61.987,26.219,24.5-24.726,24.5-24.726,12.652-63.823,13.308-81.791-4.75-27.719-5.189-28.949c-.15-.421-3.669-1.462-8.23-2.65-8.763-2.282-21.378-5.1-21.378-5.1Z" transform="translate(-141.97 -166.277)" fill="#fff" opacity="0.74"/>
            <path id="Path_109" data-name="Path 109" d="M193.658,189.53s1.049,61.635-21.689,98.7l7.064,12.152,13.057-9.519s20.866-73.788,6.148-103.246l2.584-8.458-4.4-1.014-3.836,1.146-4.135,4.894Z" transform="translate(-126.418 -160.124)" fill="#338dd7"/>
            <g id="Group_129" data-name="Group 129" transform="translate(42.414 3.444)">
              <path id="Path_110" data-name="Path 110" d="M169.9,175.223c1.087,1.221,16.727,13.54,16.727,13.54l7.992-9.044c.047-.1-6.136,11.212-6.163,11.312l-2.434.834Z" transform="translate(-169.903 -165.083)" opacity="0.2"/>
              <path id="Path_111" data-name="Path 111" d="M186.75,182.771l7.947,1.4s1.379-8.029,1.063-10.052-1.257-5.337-1.257-5.337l.957-.232s2.152,5.3,1.713,9.716c-.465,4.675-1.26,9.272-1.26,9.272Z" transform="translate(-161.169 -168.545)" opacity="0.2"/>
            </g>
            <path id="Path_112" data-name="Path 112" d="M197.238,240.634c-15.227-34.081-34.265-50.933-34.265-50.933l31.02,55.065,26.094-5.229Z" transform="translate(-131.081 -154.133)" opacity="0.2"/>
          </g>
        </g>
        <path id="Path_113" data-name="Path 113" d="M207.5,171.4s12.258-2.208,14.389,20.013c2.267,23.641.352,40.147,5.5,39.253s31.936-8.852,31.936-8.852l8.3,27.9s-38.008,16.761-54.006,14.094-14.855-30.853-14.855-30.853Z" transform="translate(-16.783 -94.487)" fill="#407bff"/>
        <path id="Path_114" data-name="Path 114" d="M207.5,171.4s12.258-2.208,14.389,20.013c2.267,23.641.352,40.147,5.5,39.253s31.936-8.852,31.936-8.852l8.3,27.9s-38.008,16.761-54.006,14.094-14.855-30.853-14.855-30.853Z" transform="translate(-16.783 -94.487)" fill="#fff" opacity="0.7"/>
        <g id="Group_133" data-name="Group 133" transform="translate(187.7 101.324)">
          <g id="Group_132" data-name="Group 132">
            <path id="Path_115" data-name="Path 115" d="M203.634,239.042c1.787-9.823,2.73-19.81,3.561-29.752.589-7.056,1.3-14.2,1.321-21.284a.57.57,0,0,0-1.139,0c-.021,6.92-.709,13.886-1.279,20.775-.828,10.01-1.761,20.069-3.562,29.957-.132.718.966,1.025,1.1.3Z" transform="translate(-202.525 -187.456)" fill="#263238"/>
          </g>
        </g>
        <g id="Group_137" data-name="Group 137" transform="translate(161.377 106.435)">
          <path id="Path_116" data-name="Path 116" d="M252.287,240.379a123.656,123.656,0,0,0-29.711,35.515L199.1,270.856,185.189,315l22.124,9.332a123.633,123.633,0,0,0,3.983,46.13l-20.1,13,21.381,41.054,22.175-9.018a123.663,123.663,0,0,0,35.515,29.71l-5.037,23.475L309.374,482.6l9.331-22.118a123.73,123.73,0,0,0,46.133-3.983l13,20.1,41.056-21.381-9.018-22.175a123.7,123.7,0,0,0,29.708-35.515l23.472,5.034,13.915-44.147-22.119-9.331a123.688,123.688,0,0,0-3.986-46.13l20.1-13L449.587,248.9l-22.175,9.018A123.657,123.657,0,0,0,391.9,228.2l5.035-23.474-44.149-13.909-9.329,22.119a123.622,123.622,0,0,0-46.13,3.983l-13-20.1L243.269,218.2ZM386.66,307.768a62.663,62.663,0,1,1-84.522-26.633,62.663,62.663,0,0,1,84.522,26.633Z" transform="translate(-185.189 -190.822)" fill="#338dd7"/>
          <path id="Path_117" data-name="Path 117" d="M252.287,240.379a123.656,123.656,0,0,0-29.711,35.515L199.1,270.856,185.189,315l22.124,9.332a123.633,123.633,0,0,0,3.983,46.13l-20.1,13,21.381,41.054,22.175-9.018a123.663,123.663,0,0,0,35.515,29.71l-5.037,23.475L309.374,482.6l9.331-22.118a123.73,123.73,0,0,0,46.133-3.983l13,20.1,41.056-21.381-9.018-22.175a123.7,123.7,0,0,0,29.708-35.515l23.472,5.034,13.915-44.147-22.119-9.331a123.688,123.688,0,0,0-3.986-46.13l20.1-13L449.587,248.9l-22.175,9.018A123.657,123.657,0,0,0,391.9,228.2l5.035-23.474-44.149-13.909-9.329,22.119a123.622,123.622,0,0,0-46.13,3.983l-13-20.1L243.269,218.2ZM386.66,307.768a62.663,62.663,0,1,1-84.522-26.633,62.663,62.663,0,0,1,84.522,26.633Z" transform="translate(-185.189 -190.822)" fill="#fff" opacity="0.4"/>
          <g id="Group_136" data-name="Group 136" transform="translate(67.369 10.342)">
            <g id="Group_134" data-name="Group 134" transform="translate(101.776)" opacity="0.3">
              <path id="Path_118" data-name="Path 118" d="M312.431,284.214a214.962,214.962,0,0,1,50.031-37.861,124.314,124.314,0,0,0-28.314-21.679l5.035-23.474-11.325-3.568c2.37,9.1,4.343,18.3,4.549,27.672.27,12.231-2.771,24.978-10.817,34.192-6.557,7.507-15.521,11.857-25.007,15.514A62.6,62.6,0,0,1,312.431,284.214Z" transform="translate(-296.583 -197.633)" fill="#fff"/>
            </g>
            <g id="Group_135" data-name="Group 135" transform="translate(0 187.008)" opacity="0.3">
              <path id="Path_119" data-name="Path 119" d="M315.723,393.485c-1.3-5.055-3.641-9.809-5.658-14.641a125.887,125.887,0,0,1-9.448-47.3,62.945,62.945,0,0,1-28.289-10.754c-5.524,12.746-14.882,23.84-25.633,32.786a155.362,155.362,0,0,1-17.14,12.237,125.247,125.247,0,0,0,17.708,12.018l-5.037,23.475,44.147,13.909L295.7,393.1a125.564,125.564,0,0,0,20.019.388Z" transform="translate(-229.556 -320.791)" fill="#fff"/>
            </g>
          </g>
        </g>
        <g id="Group_138" data-name="Group 138" transform="translate(127.536)">
          <path id="Path_120" data-name="Path 120" d="M194.272,162.464l-22.922-12.2a19.851,19.851,0,0,0,1.569,6.548c8.593,16.328,3.38,23.487,3.38,23.487l17.222,11.488,4.715-10.954h0C196.3,177.009,194.089,167.651,194.272,162.464Z" transform="translate(-158.523 -105.411)" fill="#ffb463"/>
          <path id="Path_121" data-name="Path 121" d="M191.4,163.751l-12.87-2.038c1.406,3.871,5.2,8.32,14.053,8.13a39.193,39.193,0,0,1-1.183-6.092Z" transform="translate(-154.801 -99.478)" opacity="0.2"/>
          <path id="Path_122" data-name="Path 122" d="M199.116,132.463c2.924,4.93,2.4,17.647-5.872,15.834S194.09,123.986,199.116,132.463Z" transform="translate(-148.9 -115.628)" fill="#263238"/>
          <path id="Path_123" data-name="Path 123" d="M170.881,151.055c2.392,13.877,3.459,21.752,11.309,28.082,33.816,20.9,40.419-41.961,12.945-50.291C181.049,124.979,168.491,137.178,170.881,151.055Z" transform="translate(-158.918 -116.893)" fill="#ffb463"/>
          <path id="Path_124" data-name="Path 124" d="M165.794,133.89s12.62-1.771,14.744-1.93,4.284,7.4,3.983,9.859-3.629,3.539-3.539,5.876c.106,2,3.457,7.84,2.264,10.535-1.364,1.08-8.866-3.4-8.866-3.4l-4.393,1.607S157.387,139.554,165.794,133.89Z" transform="translate(-162.902 -114.905)" fill="#263238"/>
          <path id="Path_125" data-name="Path 125" d="M165.6,140.81c-1.327-1.186-2.744-3.239-1.186-7.08,0,1.045,1.327,2.284,2.141,2.726.814-3.169,4.938-8.62,16.515-11.2,14.247-3.169,17.981,1.646,22.14-.5s-1.042-3.788-1.042-3.788,7.185-1.664,9.5,3.77.319,14.973-12.39,14.372-15.186,3.539-21.594,2.513a107.589,107.589,0,0,0-14.084-.813Z" transform="translate(-162.474 -120.727)" fill="#263238"/>
          <path id="Path_126" data-name="Path 126" d="M168.133,154.081c2.452,7.3,15.169,11.276,13.541.377C180.741,143.847,164.956,141.236,168.133,154.081Z" transform="translate(-160.409 -107.916)" fill="#ffb463"/>
          <path id="Path_127" data-name="Path 127" d="M184.383,145.09c.345,3.38,3.79,2.937,3.386-.4C187.423,141.3,183.979,141.75,184.383,145.09Z" transform="translate(-151.783 -109.513)" fill="#263238"/>
          <path id="Path_128" data-name="Path 128" d="M193.508,144.64c.345,3.38,3.79,2.937,3.386-.4C196.55,140.855,193.1,141.3,193.508,144.64Z" transform="translate(-147.052 -109.746)" fill="#263238"/>
          <path id="Path_129" data-name="Path 129" d="M190.436,143.415s5.3,6.608,7.073,9.341c-1.793,2.016-5.312,1.562-5.312,1.562Z" transform="translate(-148.628 -108.965)" fill="#ff904b"/>
          <path id="Path_130" data-name="Path 130" d="M181.618,141.332a.678.678,0,0,0,.66-.169,5.432,5.432,0,0,1,4.615-1.6c2.947-1.3-2.5-2.616-5.553.644a.672.672,0,0,0,.278,1.125Z" transform="translate(-153.449 -111.686)" fill="#263238"/>
          <path id="Path_131" data-name="Path 131" d="M169.812,148.94c2.328-3.237,6.431.6,6.838,3.485" transform="translate(-159.32 -106.739)" fill="none" stroke="#000" stroke-linecap="round" stroke-linejoin="round" stroke-miterlimit="10" stroke-width="0.5" opacity="0.2"/>
          <path id="Path_132" data-name="Path 132" d="M199.258,140.1a.684.684,0,0,0,.208-1.174,6.635,6.635,0,0,0-5.98-1.277.674.674,0,0,0,.421,1.28C194.357,138.426,196.937,138.917,199.258,140.1Z" transform="translate(-147.277 -112.075)" fill="#263238"/>
          <path id="Path_133" data-name="Path 133" d="M193.98,155.8a41.5,41.5,0,0,0-3.454,4.926c-.326-.129-.665-.252-.985-.4-4.449-1.821-5.919-4.129-6.174-6.147a6.353,6.353,0,0,1,.367-2.92,6.1,6.1,0,0,1,.764-1.488c1.783,2.376,5.787,4.39,7.979,5.375C193.441,155.533,193.98,155.8,193.98,155.8Z" transform="translate(-152.313 -105.666)" fill="#263238"/>
          <path id="Path_134" data-name="Path 134" d="M192.34,155.136l-1.061,1.426c-4.174-1.72-6.886-3.48-7.683-5.313a6,6,0,0,1,.764-1.488C186.154,152.159,190.147,154.151,192.34,155.136Z" transform="translate(-152.174 -105.674)" fill="#fff"/>
          <path id="Path_135" data-name="Path 135" d="M189.563,158.853c-4.449-1.821-5.919-4.129-6.174-6.147a15.465,15.465,0,0,1,4.539,2.994A5.828,5.828,0,0,1,189.563,158.853Z" transform="translate(-152.281 -104.148)" fill="#ff3f3e"/>
        </g>
        <g id="Group_143" data-name="Group 143" transform="translate(394.474 321.235)">
          <g id="Group_140" data-name="Group 140" transform="translate(0 7.075)">
            <g id="Group_139" data-name="Group 139">
              <path id="Path_136" data-name="Path 136" d="M340.662,361.12a154.571,154.571,0,0,0,19.65-22.529c.855-1.194-1.121-2.332-1.966-1.149a151.59,151.59,0,0,1-19.3,22.069c-1.068,1.008.545,2.616,1.611,1.61Z" transform="translate(-338.7 -336.942)" fill="#407bff"/>
            </g>
          </g>
          <g id="Group_142" data-name="Group 142" transform="translate(22.277)">
            <g id="Group_141" data-name="Group 141">
              <path id="Path_137" data-name="Path 137" d="M355.492,337.631l2.355-3.644a1.148,1.148,0,0,0-.408-1.558,1.164,1.164,0,0,0-1.558.408l-2.355,3.644a1.148,1.148,0,0,0,.408,1.558,1.165,1.165,0,0,0,1.558-.408Z" transform="translate(-353.371 -332.283)" fill="#407bff"/>
            </g>
          </g>
        </g>
        <g id="Group_144" data-name="Group 144" transform="translate(102.24 90.832)">
          <path id="Path_138" data-name="Path 138" d="M224.885,242.193s6.985-5.061,8.889-8.517,2.351-3.133,2.519-3.227,9.577-1.754,10.808-3.022,1.228-3.164.187-3.286-9.035,2.246-11.194,2.177,1.143-1.348,6.683-2.736,10.193-3.251,9.463-5.889-13.153,2.7-16.677,2.958,2.868-1.345,7.5-3.725,8.629-3.52,7.21-6.125-16.287,5.7-19.065,5.316-.383-2.569,2.03-4.41,7.556-2.519,8.321-4.54-.477-2.738-2.366-2.56-10.448,3.348-12.336,5.337c0,0-1.394-2.089-2.669-1.682s-1.271,5.84-2.381,7.878-4.191,15.339-4.191,15.339Z" transform="translate(-109.242 -168.084)" fill="#ffb463"/>
          <path id="Path_139" data-name="Path 139" d="M149.5,186.152c-4.022,4.531-1.241,12.22.041,18.142,4,18.482,26.808,70.232,33.7,77.472,8.347,8.775,73.7-19.4,78.1-23.364s-8.928-20.844-8.928-20.844-53.126,14.234-52.788,12.55-16.387-37.17-27.036-50.424S153.467,181.79,149.5,186.152Z" transform="translate(-145.638 -178.464)" opacity="0.2"/>
          <path id="Path_140" data-name="Path 140" d="M255.455,236.962s-53.126,14.234-52.789,12.55-16.387-37.171-27.036-50.424-20.705-18.542-20.705-18.542c-6.888,4.674-11.4,13.394-6.839,24.867,7.272,18.3,31.158,66.017,38.046,73.259,8.347,8.775,73.854-16.9,78.251-20.865S255.455,236.962,255.455,236.962Z" transform="translate(-146.243 -180.546)" fill="#407bff"/>
          <path id="Path_141" data-name="Path 141" d="M255.455,236.962s-53.126,14.234-52.789,12.55-16.387-37.171-27.036-50.424-20.705-18.542-20.705-18.542c-6.888,4.674-11.4,13.394-6.839,24.867,7.272,18.3,31.158,66.017,38.046,73.259,8.347,8.775,73.854-16.9,78.251-20.865S255.455,236.962,255.455,236.962Z" transform="translate(-146.243 -180.546)" fill="#fff" opacity="0.7"/>
        </g>
      </g>
    </g>
  </g>
</svg>
